<svg width="14" height="33" viewBox="0 0 14 33" fill="none" xmlns="http://www.w3.org/2000/svg">
<path d="M7.357 12.1473L7.22537 12.5755C7.06066 12.8062 6.79718 12.9706 6.50086 13.0366C6.46801 12.9378 6.43493 12.7402 6.43493 12.4108C6.40208 11.9497 6.369 11.0936 6.07265 10.2043C5.84201 9.57851 5.47999 8.95279 5.28221 8.62358C5.47977 8.49195 5.67733 8.39294 5.74326 8.32724C5.84227 8.22823 5.84227 7.96474 5.84227 7.96474C5.74349 7.83311 5.64471 7.70125 5.57878 7.56962H5.54593C5.48 7.30613 5.38122 6.68038 5.9082 6.18645C6.56679 5.59378 7.62076 5.09967 7.62076 5.09967C8.51 5.52787 8.87226 6.25243 8.87226 6.25243C8.87226 6.31836 8.87225 6.35121 8.83941 6.38406V6.6804C8.83941 7.53659 8.50998 8.22824 7.81855 8.52457L7.75262 9.15035V9.21628V9.24913C7.88425 9.90773 8.21367 10.3031 8.57594 10.6323C8.97106 10.9946 8.97106 11.4556 8.97106 11.4556C9.00391 12.5424 8.83943 12.6741 8.57594 13.8927C8.57594 13.9586 8.54309 14.0243 8.54309 14.0574C8.41146 14.1233 8.18082 14.189 7.95042 14.1562H7.91757C8.0492 13.6623 7.85164 13.3329 7.85164 13.3329C7.85164 13.7939 7.78571 14.0574 7.68693 14.1562C7.48937 14.2221 7.09426 14.3209 6.66607 14.189C6.63323 13.7608 6.56729 13.4316 6.56729 13.2341C7.02834 13.1353 7.259 12.9047 7.35774 12.7402C7.42367 12.6414 7.45652 12.5426 7.42367 12.4108L7.357 12.1473ZM6.69841 6.41698C6.5337 6.41698 6.36899 6.58169 6.36899 6.58169C6.69841 6.94396 6.99477 6.58169 6.99477 6.58169C6.99477 6.58169 6.86312 6.41698 6.69841 6.41698ZM8.50977 6.54861C8.50977 6.54861 8.37814 6.3839 8.21343 6.3839C8.04872 6.3839 7.884 6.54861 7.884 6.54861C8.21342 6.91088 8.50977 6.54861 8.50977 6.54861Z" fill="#1A15FF"/>
<path d="M7.94977 3.38723C7.91692 3.51886 7.88384 3.71665 7.75221 3.84827C7.71936 3.78234 7.65343 3.71664 7.5875 3.71664C7.52157 3.71664 7.48872 3.74949 7.45587 3.81542C7.25831 3.61786 6.96197 3.32153 6.79728 3.12372C6.59949 2.7943 6.50071 2.43202 6.50071 2.43202C6.63234 2.59673 6.83013 2.66266 6.83013 2.66266C6.50071 2.43202 6.46786 1.93814 6.46786 1.93814C6.66542 2.16878 6.86298 2.20163 6.86298 2.20163C6.86298 2.20163 6.69827 2.03692 6.56664 1.83936C6.43501 1.6418 6.336 0.851318 6.336 0.851318C7.12644 1.21359 7.42277 2.20162 7.42277 2.20162L7.38992 1.83935L7.65341 2.23447C7.85097 2.59674 7.8179 2.79429 7.8179 2.79429L7.94953 2.56365C7.98261 2.8933 7.98262 3.15658 7.94977 3.38723Z" fill="#1A15FF"/>
<path d="M8.97077 6.0877C8.57565 5.396 7.62048 4.80333 7.62048 4.80333C7.62048 4.80333 6.40203 5.42911 5.71038 5.98891C5.21649 6.4171 5.24934 7.17448 5.28219 7.53674C5.18341 7.47081 5.08463 7.40511 5.0187 7.3061C4.72236 6.97668 3.7672 5.72539 4.5905 4.63861C5.18317 3.8153 6.00649 3.48585 6.59939 3.32143C6.96167 3.71655 7.2911 3.98002 7.38984 4.07882V4.21045C7.38984 4.44109 7.48862 4.63864 7.62048 4.63864C7.75211 4.63864 7.85112 4.44108 7.85112 4.21045V4.11167C7.91705 4.04574 8.11461 3.88103 8.18054 3.55184C9.53084 4.44108 9.43204 5.13255 9.36611 5.42912C9.29995 5.62668 9.1024 5.89016 8.97077 6.0877Z" fill="#FF1515"/>
<path d="M12.5932 9.2163C12.5604 9.31508 12.5273 9.41386 12.5273 9.54572C12.4614 9.54572 12.2638 9.54572 12.1979 9.47979C12.0991 9.38101 12.1319 9.31508 12.165 9.2163C12.1979 9.15037 12.3626 8.91996 12.3626 8.88688C12.5601 8.72217 12.8236 8.52461 12.9884 8.55746C13.0543 8.55746 13.12 8.59031 13.219 8.65624C12.9555 8.72217 12.6592 9.0516 12.5932 9.2163Z" fill="#1A15FF"/>
<path d="M9.99166 11.324C9.95881 10.5995 9.82695 9.9737 9.76102 9.67737C9.8598 9.71022 9.92573 9.77615 10.0245 9.809C10.3868 10.0066 10.8478 10.4348 10.9138 10.7639C10.9138 10.7639 11.0785 11.0603 11.3089 11.4884C10.9466 13.168 11.3748 14.2878 11.3748 14.2878C11.3748 14.2878 11.276 14.0243 11.342 13.2339C11.3748 12.6741 11.4736 12.1142 11.5395 11.8507C11.6054 11.8836 11.9018 12.0483 12.264 12.0813C12.5935 12.0813 12.9886 11.9826 13.0874 11.9166C13.318 12.8059 13.4825 14.1559 13.0214 15.1111C13.0214 15.1111 12.264 16.066 11.5723 15.3417C11.5723 15.3089 10.3539 14.2878 9.8269 13.4645C9.92568 12.8718 10.0245 11.9166 9.9916 11.324L9.99166 11.324Z" fill="#FF1515"/>
<path d="M12.758 10.9618C12.758 10.9618 12.0663 11.1593 11.6712 10.797C11.6712 10.797 11.6383 10.7642 11.2761 10.336C11.1113 10.1384 10.7491 9.41388 11.0126 8.49183C11.0126 8.49183 11.1113 8.1624 11.342 8.26119C11.5067 8.35997 11.6383 8.65631 11.6714 9.0845C11.6714 9.0845 12.0337 8.59061 12.1325 8.03054C12.2312 7.47071 12.4619 6.81209 12.7251 6.84496C12.9227 6.87781 12.8239 7.37194 12.758 7.66828C12.7251 7.79991 12.692 7.96462 12.692 8.12933L12.6592 8.32689C12.6592 8.32689 12.4616 8.45852 12.2969 8.65631C11.9347 9.01858 11.9018 9.38082 12.1322 9.54555C12.2969 9.67718 12.4616 9.64433 12.5273 9.61148C12.5602 9.67741 12.5933 9.74311 12.659 9.80904C12.8237 9.94067 12.9884 9.87497 13.12 9.74311C13.1859 9.67718 13.2847 9.44677 13.2847 9.44677C13.2847 9.44677 13.12 9.64433 13.0541 9.67741C12.9881 9.71026 12.8234 9.80904 12.7247 9.71026C12.593 9.61148 12.6587 9.34799 12.7247 9.21636C12.7906 9.08473 13.1529 8.72247 13.2845 8.75532C13.3173 8.75532 13.3504 8.78817 13.3833 8.78817C13.482 8.9198 13.548 9.08451 13.548 9.24921C13.5154 9.57863 13.2521 10.5664 12.758 10.9618Z" fill="#1A15FF"/>
<path d="M9.26713 15.9016C9.26713 15.9016 9.23428 15.9016 9.23428 15.9345C9.23428 15.9345 9.20143 15.9345 9.20143 15.9673C9.20143 15.9673 9.16858 15.9673 9.16858 16.0002C9.16858 16.0002 9.13573 16.0002 9.13573 16.033C9.10288 16.033 9.10288 16.0659 9.0698 16.0659C9.0698 16.0659 9.03695 16.0659 9.03695 16.0987C9.0041 16.0987 8.97102 16.1316 8.93817 16.1647H8.90532C8.77369 16.2306 8.64183 16.3294 8.54305 16.3953C8.5102 16.3953 8.47712 16.4282 8.47712 16.4282H8.44427C8.37834 16.461 8.34549 16.4941 8.27956 16.4941C8.24671 16.5269 8.18078 16.5269 8.18078 16.5269C7.95014 16.5929 7.06112 16.6917 6.73168 16.7245C6.66575 16.5929 6.56697 16.3951 6.50104 16.2306C6.43511 16.033 6.43511 15.6379 6.43511 15.5061C6.50104 15.4402 7.32435 14.5181 8.08174 14.5181C8.08174 14.5181 8.34523 14.5181 8.41116 14.6828C8.47709 14.8144 8.27953 15.045 8.2136 15.0779C8.11482 15.1438 7.91726 15.2426 7.95011 15.3414C7.98296 15.4402 8.27953 15.3742 8.37831 15.3414C8.37785 15.3418 8.47663 15.3418 8.57541 15.3088L9.36585 15.1112C9.36585 15.1112 9.43178 15.0783 9.53056 15.0783C9.69527 15.0783 10.1232 15.1771 9.95876 15.3747C9.89283 15.4735 9.59649 15.671 9.26705 15.9017L9.26713 15.9016Z" fill="#1A15FF"/>
<path d="M9.79414 11.324C9.82699 11.6534 9.69536 13.1022 9.62943 13.7611C9.5635 14.1892 9.46472 14.5844 9.39879 14.9466C9.33286 14.9466 9.20123 14.9795 9.1353 14.9795C9.03652 14.9795 8.80588 15.0454 8.6414 15.1111C8.70733 14.716 8.80611 14.2878 8.90489 13.9583C9.20123 12.9044 9.26716 11.719 9.26716 11.2909C9.26716 10.8627 8.50977 10.2369 8.37792 10.0065C8.27914 9.84178 7.9828 8.91971 7.91688 8.6893C8.6414 8.6893 9.56351 9.381 9.56351 9.381C9.56351 9.381 9.59636 9.47978 9.59636 9.61164C9.59659 9.57856 9.76106 10.9617 9.79414 11.324Z" fill="#FF1515"/>
<path d="M9.20117 16.198C9.10239 16.8238 9.06954 17.2189 9.06954 17.2189C9.06954 17.2189 8.6085 17.7128 8.31215 16.8895V16.8566C8.31215 16.8238 8.31215 16.7578 8.345 16.6919C8.37785 16.6591 8.44378 16.6591 8.47663 16.626C8.74012 16.4943 9.00363 16.3297 9.20117 16.198Z" fill="#FF1515"/>
<path d="M7.25818 14.5185C7.1594 14.5513 7.09347 14.6172 6.99469 14.6501C6.89591 14.716 6.79713 14.7817 6.7312 14.8477C6.7312 14.6829 6.69835 14.5182 6.69835 14.3538C6.76428 14.4854 6.96184 14.5513 7.25818 14.5185Z" fill="#1A15FF"/>
<path d="M4.19547 9.5127C4.09669 9.38107 3.89913 9.31514 3.73442 9.34799L2.64765 9.54555C2.64765 9.54555 3.89915 8.55751 4.92006 8.68936C4.92006 8.68936 4.95291 8.72221 5.01884 8.78814C5.18355 9.05163 5.74336 10.0725 5.90808 10.6654C6.07279 11.324 6.13872 12.6084 6.2375 13.1025C6.27035 13.3331 6.40221 14.1893 6.46814 15.0786C6.30343 15.2433 6.20465 15.3749 6.20465 15.3749C6.20465 15.3749 5.7436 15.4078 5.34846 15.3421C4.95334 15.2761 3.76775 15.0457 3.66895 15.0786C3.66895 15.0786 3.80058 14.7822 3.86651 14.3212C5.15089 12.9052 4.7227 10.8963 4.55822 10.4021C4.39305 9.84185 4.19547 9.5127 4.19547 9.5127Z" fill="#FF1515"/>
<path d="M8.2133 14.3867C8.31208 14.3867 8.44394 14.3539 8.54272 14.2551C8.50987 14.3539 8.50988 14.4527 8.47679 14.5514C8.41086 14.4527 8.31208 14.4198 8.2133 14.3867Z" fill="#1A15FF"/>
<path d="M1.06686 12.3778C1.26442 11.9496 1.33035 11.6861 1.33035 11.6861C1.23157 10.1054 2.87818 9.61131 3.8991 9.64436L3.96503 9.61151L4.16259 10.0066C4.16259 10.0066 4.55771 10.5993 4.55771 12.0484C4.55771 12.9046 4.22829 13.5303 3.93193 13.9257V13.695C3.93193 12.9046 3.83315 12.6083 3.83315 12.6083L4.06379 12.0156C4.06379 12.0156 3.6356 12.4438 3.6356 12.6083C3.6356 12.773 3.83316 13.3 3.6356 14.5512C3.6356 14.5512 3.53682 14.8806 3.33925 15.2098C3.33925 15.2098 4.19544 15.4074 5.01876 15.5062C4.98591 15.6378 4.91998 16.0001 4.98591 16.3295C5.05184 16.6258 5.15062 16.9221 5.18347 17.0869C4.29423 17.3175 3.2405 17.6138 2.84514 17.7126C2.25247 17.7455 1.82428 17.6139 1.59364 17.5479C1.03381 17.3504 1.16544 15.9672 1.16544 15.7038C1.16544 15.4074 0.80317 14.551 0.80317 14.551C0.605838 13.9586 0.869299 12.7732 1.06686 12.3778Z" fill="#FF1515"/>
<path d="M6.46777 17.0872C6.46777 17.1201 6.43492 17.1531 6.43492 17.186C6.43492 17.186 6.1055 17.9105 5.67753 17.9105C5.38119 17.9105 4.7226 17.7458 4.32723 17.647C5.08463 17.4495 5.90794 17.2188 6.10548 17.186C6.23734 17.1529 6.33614 17.1201 6.46777 17.0872Z" fill="#FF1515"/>
<path d="M2.51591 25.0898C1.52787 23.9702 1.95609 21.9941 2.31835 21.3027C2.51591 20.8745 2.87818 20.3478 3.14167 19.7549C3.37231 19.1622 3.43801 18.5364 3.2076 17.9766C3.40516 17.9107 3.63579 17.8778 3.86619 17.8119C4.0309 17.8778 5.18338 18.273 5.74347 18.1742C6.36925 18.1083 6.63271 17.4497 6.66558 17.2521C6.66558 17.1861 6.69843 17.1204 6.69843 17.0545C6.83007 17.0217 6.99478 16.9886 7.15948 16.9557C7.45582 16.8898 7.78526 16.8898 8.08159 16.791C8.04874 17.3508 8.21323 17.5484 8.21323 17.5484C8.21323 17.5484 8.34486 17.6143 8.70712 17.8119C9.06939 18.0095 9.46451 18.6352 9.26695 20.249C9.26695 20.249 9.03631 21.5662 7.65319 22.4555C6.27007 23.3448 6.03943 24.3984 7.25807 25.7487C8.47652 27.099 7.29092 29.0749 7.02743 29.3055C6.76394 29.5361 6.23698 30.2935 5.11733 30.3263C3.99768 30.3592 2.97683 31.3143 3.17437 31.8413C3.37193 32.3683 4.06361 32.4999 4.06361 32.4999C4.06361 32.4999 2.28536 32.5328 2.21944 31.1827C2.18659 30.2935 2.35107 29.7008 4.06361 28.6469C5.80927 27.527 3.50401 26.2426 2.51601 25.0899L2.51591 25.0898Z" fill="#1A15FF"/>
</svg>
