<svg width="20" height="28" viewBox="0 0 20 28" fill="none" xmlns="http://www.w3.org/2000/svg">
<path d="M0.444284 18.5684C1.15022 17.3896 1.59466 16.0631 1.59466 14.6484V11.8485C1.59466 7.221 4.13062 3.74321 8.05221 2.82953V1.70947C8.05221 0.76621 8.7319 0 9.56855 0H10.4313C11.268 0 11.9477 0.766263 11.9477 1.70947V2.82953C15.8431 3.77279 18.4052 7.25058 18.4052 11.8485V14.6484C18.4052 16.0631 18.8496 17.419 19.5556 18.5684C19.8432 19.04 20 19.6001 20 20.1895V20.4253C20 22.0168 18.8496 23.3137 17.4379 23.3137H2.56206C1.15038 23.3137 1.90735e-06 22.0168 1.90735e-06 20.4253V20.1895C-0.000362396 19.5999 0.156696 19.0401 0.444284 18.5684Z" fill="white"/>
<path d="M9.98681 28C8.47047 28 7.26794 26.6147 7.24166 24.9052H12.7319C12.7056 26.6147 11.5032 28 9.98681 28Z" fill="white"/>
</svg>
