<svg width="548" height="731" viewBox="0 0 548 731" fill="none" xmlns="http://www.w3.org/2000/svg">
<rect width="387.495" height="387.495" rx="67" transform="matrix(-0.707107 0.707107 0.707107 0.707107 274 182.667)" fill="#FFEDED"/>
<rect width="387.495" height="387.495" rx="67" transform="matrix(-0.707107 0.707107 0.707107 0.707107 274 182.667)" fill="url(#paint0_linear_1_408)"/>
<path d="M234.403 223.288L237.005 231.752C240.261 236.311 245.469 239.563 251.326 240.866C251.976 238.913 252.63 235.008 252.63 228.496C253.279 219.383 253.933 202.459 259.791 184.88C264.35 172.511 271.506 160.142 275.415 153.634C271.51 151.032 267.605 149.075 266.302 147.777C264.345 145.819 264.345 140.611 264.345 140.611C266.297 138.009 268.25 135.403 269.553 132.801H270.203C271.506 127.592 273.458 115.223 263.042 105.459C250.023 93.7441 229.189 83.9771 229.189 83.9771C211.612 92.4412 204.451 106.764 204.451 106.764C204.451 108.067 204.451 108.716 205.1 109.366V115.223C205.1 132.148 211.612 145.82 225.28 151.677L226.583 164.047V165.35V166C223.981 179.018 217.469 186.833 210.308 193.341C202.498 200.502 202.498 209.615 202.498 209.615C201.849 231.098 205.1 233.701 210.308 257.789C210.308 259.092 210.958 260.391 210.958 261.045C213.56 262.348 218.119 263.647 222.673 262.998H223.322C220.72 253.235 224.626 246.723 224.626 246.723C224.626 255.837 225.929 261.045 227.881 262.998C231.787 264.301 239.597 266.253 248.061 263.647C248.71 255.183 250.013 248.676 250.013 244.771C240.9 242.818 236.34 238.259 234.389 235.008C233.085 233.055 232.436 231.103 233.085 228.496L234.403 223.288ZM247.421 110.016C250.677 110.016 253.933 113.272 253.933 113.272C247.421 120.433 241.563 113.272 241.563 113.272C241.563 113.272 244.166 110.016 247.421 110.016ZM211.616 112.618C211.616 112.618 214.218 109.362 217.474 109.362C220.73 109.362 223.986 112.618 223.986 112.618C217.474 119.779 211.616 112.618 211.616 112.618Z" fill="#1A15FF"/>
<path d="M222.685 50.1274C223.335 52.7294 223.988 56.6391 226.59 59.2409C227.24 57.9377 228.543 56.639 229.846 56.639C231.15 56.639 231.799 57.2883 232.448 58.5916C236.353 54.6864 242.211 48.8287 245.467 44.9186C249.376 38.407 251.329 31.2457 251.329 31.2457C248.727 34.5015 244.817 35.8048 244.817 35.8048C251.329 31.2457 251.978 21.4832 251.978 21.4832C248.073 26.0423 244.168 26.6916 244.168 26.6916C244.168 26.6916 247.424 23.4358 250.026 19.5306C252.628 15.6254 254.585 0 254.585 0C238.96 7.16103 233.102 26.6914 233.102 26.6914L233.752 19.5304L228.543 27.3407C224.638 34.5018 225.292 38.4068 225.292 38.4068L222.69 33.8478C222.036 40.364 222.036 45.5682 222.685 50.1274Z" fill="#1A15FF"/>
<path d="M202.505 103.508C210.316 89.8351 229.197 78.1198 229.197 78.1198C229.197 78.1198 253.282 90.4896 266.954 101.555C276.716 110.019 276.067 124.99 275.418 132.151C277.37 130.848 279.323 129.549 280.626 127.592C286.484 121.08 305.365 96.3462 289.09 74.8638C277.375 58.5893 261.1 52.0772 249.38 48.8269C242.219 56.6373 235.708 61.8454 233.756 63.7983V66.4002C233.756 70.9593 231.803 74.8644 229.197 74.8644C226.595 74.8644 224.638 70.9592 224.638 66.4002V64.4477C223.334 63.1444 219.429 59.8886 218.126 53.3816C191.435 70.9592 193.388 84.6275 194.691 90.4898C195.998 94.395 199.903 99.6031 202.505 103.508Z" fill="#FF1515"/>
<path d="M130.897 165.351C131.546 167.304 132.2 169.256 132.2 171.863C133.503 171.863 137.408 171.863 138.712 170.56C140.664 168.607 140.015 167.304 139.361 165.351C138.712 164.048 135.456 159.493 135.456 158.839C131.551 155.584 126.342 151.678 123.086 152.328C121.783 152.328 120.484 152.977 118.527 154.28C123.735 155.584 129.593 162.095 130.897 165.351Z" fill="#1A15FF"/>
<path d="M182.325 207.014C182.974 192.692 185.581 180.323 186.884 174.465C184.931 175.114 183.628 176.417 181.675 177.067C174.514 180.972 165.401 189.437 164.098 195.943C164.098 195.943 160.842 201.801 156.287 210.265C163.448 243.463 154.984 265.6 154.984 265.6C154.984 265.6 156.937 260.392 155.633 244.767C154.984 233.7 153.031 222.634 151.728 217.425C150.425 218.075 144.567 221.331 137.407 221.984C130.895 221.984 123.085 220.032 121.132 218.729C116.573 236.306 113.322 262.993 122.435 281.874C122.435 281.874 137.407 300.75 151.08 286.433C151.08 285.784 175.165 265.599 185.582 249.325C183.629 237.609 181.677 218.728 182.326 207.013L182.325 207.014Z" fill="#FF1515"/>
<path d="M127.642 199.853C127.642 199.853 141.315 203.758 149.125 196.597C149.125 196.597 149.774 195.948 156.935 187.484C160.191 183.579 167.352 169.256 162.144 151.03C162.144 151.03 160.191 144.518 155.632 146.471C152.376 148.423 149.774 154.281 149.12 162.745C149.12 162.745 141.959 152.983 140.007 141.912C138.054 130.846 133.495 117.827 128.291 118.476C124.386 119.126 126.339 128.893 127.642 134.751C128.291 137.353 128.945 140.609 128.945 143.864L129.595 147.77C129.595 147.77 133.5 150.372 136.756 154.281C143.917 161.442 144.566 168.603 140.011 171.859C136.756 174.461 133.5 173.811 132.201 173.162C131.552 174.465 130.898 175.764 129.599 177.067C126.343 179.669 123.087 178.371 120.486 175.764C119.182 174.461 117.23 169.906 117.23 169.906C117.23 169.906 120.486 173.811 121.789 174.465C123.092 175.115 126.348 177.067 128.301 175.115C130.902 173.162 129.604 167.954 128.301 165.352C126.997 162.75 119.836 155.589 117.234 156.238C116.585 156.238 115.931 156.888 115.282 156.888C113.329 159.49 112.026 162.745 112.026 166.001C112.671 172.513 117.874 192.038 127.642 199.853Z" fill="#1A15FF"/>
<path d="M196.646 297.5C196.646 297.5 197.295 297.5 197.295 298.15C197.295 298.15 197.945 298.15 197.945 298.799C197.945 298.799 198.594 298.799 198.594 299.448C198.594 299.448 199.243 299.448 199.243 300.098C199.893 300.098 199.893 300.747 200.547 300.747C200.547 300.747 201.196 300.747 201.196 301.396C201.845 301.396 202.499 302.046 203.149 302.7H203.798C206.4 304.003 209.006 305.955 210.959 307.259C211.608 307.259 212.262 307.908 212.262 307.908H212.911C214.215 308.557 214.864 309.211 216.167 309.211C216.817 309.861 218.12 309.861 218.12 309.861C222.679 311.164 240.252 313.116 246.764 313.766C248.067 311.164 250.02 307.254 251.323 304.003C252.627 300.098 252.627 292.288 252.627 289.681C251.323 288.378 235.049 270.151 220.077 270.151C220.077 270.151 214.869 270.151 213.566 273.407C212.263 276.008 216.168 280.568 217.471 281.217C219.424 282.52 223.329 284.473 222.679 286.425C222.03 288.378 216.168 287.075 214.215 286.425C214.224 286.434 212.272 286.434 210.319 285.781L194.694 281.875C194.694 281.875 193.391 281.226 191.439 281.226C188.183 281.226 179.723 283.179 182.974 287.084C184.278 289.036 190.135 292.942 196.647 297.501L196.646 297.5Z" fill="#1A15FF"/>
<path d="M186.23 207.014C185.581 213.525 188.183 242.164 189.486 255.187C190.789 263.652 192.742 271.462 194.045 278.623C195.348 278.623 197.95 279.272 199.254 279.272C201.206 279.272 205.765 280.575 209.016 281.874C207.713 274.064 205.761 265.599 203.808 259.087C197.95 238.254 196.647 214.823 196.647 206.359C196.647 197.895 211.618 185.525 214.225 180.971C216.177 177.715 222.035 159.488 223.338 154.934C209.017 154.934 190.789 168.607 190.789 168.607C190.789 168.607 190.14 170.559 190.14 173.166C190.135 172.512 186.884 199.853 186.23 207.014Z" fill="#FF1515"/>
<path d="M197.949 303.359C199.901 315.729 200.551 323.538 200.551 323.538C200.551 323.538 209.664 333.301 215.522 317.026V316.377C215.522 315.728 215.522 314.425 214.873 313.121C214.224 312.472 212.92 312.472 212.271 311.818C207.062 309.216 201.854 305.961 197.949 303.359Z" fill="#FF1515"/>
<path d="M236.356 270.159C238.309 270.809 239.612 272.112 241.565 272.761C243.517 274.064 245.47 275.363 246.773 276.666C246.773 273.41 247.423 270.155 247.423 266.903C246.119 269.505 242.214 270.809 236.356 270.159Z" fill="#1A15FF"/>
<path d="M296.898 171.21C298.85 168.608 302.755 167.305 306.011 167.954L327.493 171.859C327.493 171.859 302.755 152.329 282.575 154.935C282.575 154.935 281.925 155.584 280.622 156.887C277.366 162.096 266.3 182.276 263.044 193.996C259.789 207.014 258.485 232.402 256.533 242.169C255.883 246.729 253.277 263.652 251.974 281.231C255.229 284.487 257.182 287.088 257.182 287.088C257.182 287.088 266.296 287.738 274.106 286.439C281.917 285.136 305.352 280.581 307.305 281.231C307.305 281.231 304.703 275.373 303.4 266.259C278.012 238.269 286.476 198.56 289.727 188.791C292.992 177.716 296.898 171.21 296.898 171.21Z" fill="#FF1515"/>
<path d="M217.478 267.555C215.526 267.555 212.919 266.906 210.967 264.953C211.616 266.906 211.616 268.858 212.27 270.811C213.573 268.858 215.526 268.209 217.478 267.555Z" fill="#1A15FF"/>
<path d="M358.741 227.845C354.836 219.381 353.533 214.172 353.533 214.172C355.485 182.926 322.936 173.159 302.756 173.813L301.453 173.163L297.548 180.974C297.548 180.974 289.737 192.689 289.737 221.333C289.737 238.258 296.249 250.626 302.107 258.442V253.883C302.107 238.258 304.06 232.4 304.06 232.4L299.5 220.685C299.5 220.685 307.965 229.149 307.965 232.4C307.965 235.656 304.059 246.073 307.965 270.807C307.965 270.807 309.917 277.319 313.822 283.825C313.822 283.825 296.898 287.731 280.624 289.683C281.273 292.285 282.576 299.446 281.273 305.958C279.97 311.815 278.017 317.673 277.368 320.929C294.945 325.488 315.774 331.346 323.59 333.299C335.305 333.948 343.769 331.346 348.328 330.043C359.394 326.138 356.792 298.797 356.792 293.589C356.792 287.731 363.953 270.803 363.953 270.803C367.854 259.092 362.646 235.661 358.741 227.845Z" fill="#FF1515"/>
<path d="M251.979 320.936C251.979 321.585 252.629 322.239 252.629 322.888C252.629 322.888 259.141 337.21 267.6 337.21C273.458 337.21 286.476 333.954 294.292 332.001C279.32 328.096 263.046 323.537 259.141 322.888C256.534 322.234 254.581 321.585 251.979 320.936Z" fill="#FF1515"/>
<path d="M330.098 479.124C349.628 456.992 341.164 417.931 334.003 404.263C330.098 395.799 322.937 385.387 317.728 373.667C313.169 361.952 311.87 349.582 316.425 338.517C312.52 337.213 307.961 336.564 303.407 335.261C300.151 336.564 277.37 344.374 266.298 342.422C253.929 341.119 248.721 328.1 248.071 324.194C248.071 322.891 247.422 321.592 247.422 320.289C244.82 319.64 241.564 318.986 238.308 318.337C232.45 317.033 225.938 317.033 220.081 315.081C220.73 326.147 217.479 330.052 217.479 330.052C217.479 330.052 214.877 331.355 207.716 335.261C200.555 339.166 192.744 351.535 196.65 383.434C196.65 383.434 201.209 409.471 228.549 427.05C255.889 444.629 260.448 465.457 236.359 492.148C212.274 518.84 235.71 557.896 240.918 562.454C246.127 567.013 256.543 581.985 278.675 582.634C300.807 583.283 320.987 602.164 317.082 612.581C313.177 622.998 299.504 625.599 299.504 625.599C299.504 625.599 334.655 626.249 335.958 599.562C336.607 581.985 333.356 570.27 299.504 549.436C264.998 527.299 310.566 501.911 330.096 479.125L330.098 479.124Z" fill="#1A15FF"/>
<defs>
<linearGradient id="paint0_linear_1_408" x1="61.5071" y1="67.6578" x2="365.967" y2="372.118" gradientUnits="userSpaceOnUse">
<stop stop-color="#E4E3FF"/>
<stop offset="0.709794" stop-color="white"/>
</linearGradient>
</defs>
</svg>
