<svg width="175" height="62" viewBox="0 0 175 62" fill="none" xmlns="http://www.w3.org/2000/svg">
<rect x="23.25" y="15.5" width="32.8805" height="32.8805" rx="7" transform="rotate(45 23.25 15.5)" fill="#FFEDED"/>
<rect x="23.25" y="15.5" width="32.8805" height="32.8805" rx="7" transform="rotate(45 23.25 15.5)" fill="url(#paint0_linear_1_280)"/>
<path d="M26.6099 18.9469L26.3892 19.6651C26.1129 20.052 25.6709 20.3279 25.1739 20.4385C25.1188 20.2728 25.0633 19.9414 25.0633 19.3888C25.0082 18.6155 24.9527 17.1795 24.4557 15.6879C24.0688 14.6382 23.4616 13.5887 23.1299 13.0365C23.4612 12.8157 23.7926 12.6497 23.9032 12.5395C24.0692 12.3734 24.0692 11.9314 24.0692 11.9314C23.9036 11.7106 23.7379 11.4895 23.6273 11.2687H23.5722C23.4616 10.8267 23.2959 9.77715 24.1798 8.94867C25.2845 7.95458 27.0523 7.12581 27.0523 7.12581C28.5439 7.84403 29.1515 9.05935 29.1515 9.05935C29.1515 9.16993 29.1515 9.22503 29.0964 9.28013V9.77719C29.0964 11.2133 28.5438 12.3734 27.3841 12.8704L27.2735 13.9201V14.0307V14.0858C27.4943 15.1904 28.0468 15.8536 28.6545 16.4058C29.3172 17.0134 29.3172 17.7867 29.3172 17.7867C29.3723 19.6096 29.0964 19.8304 28.6545 21.8745C28.6545 21.985 28.5994 22.0952 28.5994 22.1507C28.3786 22.2613 27.9917 22.3715 27.6053 22.3164H27.5502C27.771 21.488 27.4396 20.9355 27.4396 20.9355C27.4396 21.7088 27.329 22.1507 27.1633 22.3164C26.832 22.427 26.1692 22.5927 25.451 22.3715C25.3959 21.6533 25.2853 21.1011 25.2853 20.7698C26.0587 20.6041 26.4455 20.2173 26.6112 19.9414C26.7217 19.7757 26.7768 19.61 26.7217 19.3888L26.6099 18.9469ZM25.5053 9.33534C25.229 9.33534 24.9527 9.61161 24.9527 9.61161C25.5053 10.2193 26.0024 9.61161 26.0024 9.61161C26.0024 9.61161 25.7815 9.33534 25.5053 9.33534ZM28.5435 9.55613C28.5435 9.55613 28.3227 9.27986 28.0464 9.27986C27.7702 9.27986 27.4939 9.55613 27.4939 9.55613C28.0464 10.1638 28.5435 9.55613 28.5435 9.55613Z" fill="#1A15FF"/>
<path d="M27.6042 4.25351C27.5491 4.4743 27.4936 4.80605 27.2729 5.02683C27.2178 4.91624 27.1072 4.80604 26.9966 4.80604C26.886 4.80604 26.8309 4.86114 26.7758 4.97173C26.4444 4.64036 25.9474 4.14331 25.6711 3.81153C25.3394 3.25898 25.1737 2.65132 25.1737 2.65132C25.3945 2.92759 25.7262 3.03818 25.7262 3.03818C25.1737 2.65132 25.1186 1.82294 25.1186 1.82294C25.45 2.20979 25.7813 2.26489 25.7813 2.26489C25.7813 2.26489 25.5051 1.98862 25.2843 1.65725C25.0635 1.32588 24.8974 0 24.8974 0C26.2232 0.607642 26.7203 2.26487 26.7203 2.26487L26.6652 1.65723L27.1071 2.31997C27.4385 2.92761 27.383 3.25897 27.383 3.25897L27.6038 2.87212C27.6593 3.42505 27.6593 3.86665 27.6042 4.25351Z" fill="#1A15FF"/>
<path d="M29.3166 8.78306C28.6539 7.62285 27.0517 6.62876 27.0517 6.62876C27.0517 6.62876 25.008 7.67839 23.8479 8.61734C23.0195 9.33556 23.0746 10.6059 23.1297 11.2135C22.964 11.103 22.7983 10.9928 22.6877 10.8267C22.1907 10.2741 20.5886 8.17535 21.9695 6.35248C22.9636 4.97152 24.3446 4.41894 25.3391 4.14314C25.9467 4.80588 26.4993 5.24781 26.6649 5.41353V5.63431C26.6649 6.02117 26.8306 6.35253 27.0517 6.35253C27.2725 6.35253 27.4386 6.02116 27.4386 5.63431V5.46863C27.5492 5.35804 27.8805 5.08177 27.9911 4.52962C30.256 6.02116 30.0903 7.18097 29.9797 7.67841C29.8687 8.00978 29.5374 8.45171 29.3166 8.78306Z" fill="#FF1515"/>
<path d="M35.3928 14.0307C35.3377 14.1964 35.2823 14.3621 35.2823 14.5833C35.1717 14.5833 34.8403 14.5833 34.7297 14.4727C34.564 14.307 34.6191 14.1964 34.6746 14.0307C34.7297 13.9201 35.006 13.5337 35.006 13.4782C35.3374 13.2019 35.7793 12.8705 36.0556 12.9256C36.1662 12.9256 36.2764 12.9807 36.4425 13.0913C36.0005 13.2019 35.5035 13.7545 35.3928 14.0307Z" fill="#1A15FF"/>
<path d="M31.029 17.566C30.9739 16.3507 30.7527 15.3011 30.6422 14.804C30.8078 14.8591 30.9184 14.9697 31.0841 15.0248C31.6918 15.3562 32.4651 16.0745 32.5756 16.6265C32.5756 16.6265 32.8519 17.1236 33.2384 17.8418C32.6307 20.6588 33.349 22.5372 33.349 22.5372C33.349 22.5372 33.1833 22.0953 33.2939 20.7694C33.349 19.8304 33.5147 18.8914 33.6252 18.4494C33.7358 18.5045 34.2329 18.7808 34.8405 18.8363C35.393 18.8363 36.0557 18.6706 36.2214 18.56C36.6083 20.0515 36.8842 22.316 36.1109 23.9181C36.1109 23.9181 34.8405 25.5198 33.6803 24.305C33.6803 24.2499 31.6366 22.5372 30.7526 21.1562C30.9183 20.1621 31.084 18.56 31.0289 17.5659L31.029 17.566Z" fill="#FF1515"/>
<path d="M35.669 16.9583C35.669 16.9583 34.5088 17.2897 33.8462 16.6821C33.8462 16.6821 33.7911 16.627 33.1834 15.9087C32.9072 15.5774 32.2995 14.3621 32.7415 12.8155C32.7415 12.8155 32.9072 12.263 33.294 12.4286C33.5703 12.5943 33.7911 13.0914 33.8466 13.8096C33.8466 13.8096 34.4542 12.9812 34.6199 12.0418C34.7856 11.1028 35.1724 9.99805 35.614 10.0532C35.9453 10.1083 35.7796 10.9371 35.6691 11.4342C35.614 11.6549 35.5585 11.9312 35.5585 12.2075L35.5034 12.5388C35.5034 12.5388 35.172 12.7596 34.8957 13.0914C34.2881 13.699 34.233 14.3066 34.6195 14.5829C34.8957 14.8037 35.172 14.7486 35.2822 14.6935C35.3373 14.8041 35.3928 14.9143 35.503 15.0249C35.7793 15.2457 36.0555 15.1355 36.2763 14.9143C36.3869 14.8037 36.5526 14.4172 36.5526 14.4172C36.5526 14.4172 36.2763 14.7486 36.1657 14.8041C36.0551 14.8592 35.7789 15.0249 35.6132 14.8592C35.3924 14.6935 35.5026 14.2515 35.6132 14.0308C35.7238 13.81 36.3314 13.2024 36.5522 13.2575C36.6073 13.2575 36.6628 13.3126 36.7179 13.3126C36.8836 13.5333 36.9941 13.8096 36.9941 14.0859C36.9394 14.6384 36.4979 16.2952 35.669 16.9583Z" fill="#1A15FF"/>
<path d="M29.8138 25.2441C29.8138 25.2441 29.7587 25.2441 29.7587 25.2992C29.7587 25.2992 29.7036 25.2992 29.7036 25.3543C29.7036 25.3543 29.6485 25.3543 29.6485 25.4094C29.6485 25.4094 29.5934 25.4094 29.5934 25.4645C29.5383 25.4645 29.5383 25.5196 29.4828 25.5196C29.4828 25.5196 29.4277 25.5196 29.4277 25.5747C29.3726 25.5747 29.3171 25.6298 29.262 25.6853H29.2069C28.9861 25.7959 28.7649 25.9615 28.5993 26.0721C28.5442 26.0721 28.4887 26.1272 28.4887 26.1272H28.4336C28.323 26.1823 28.2679 26.2378 28.1573 26.2378C28.1022 26.2929 27.9916 26.2929 27.9916 26.2929C27.6048 26.4035 26.1136 26.5692 25.561 26.6243C25.4504 26.4035 25.2848 26.0717 25.1742 25.7959C25.0636 25.4645 25.0636 24.8018 25.0636 24.5806C25.1742 24.47 26.5551 22.9234 27.8255 22.9234C27.8255 22.9234 28.2675 22.9234 28.378 23.1996C28.4886 23.4204 28.1573 23.8073 28.0467 23.8624C27.881 23.973 27.5496 24.1387 27.6047 24.3043C27.6598 24.47 28.1573 24.3594 28.3229 24.3043C28.3222 24.3051 28.4879 24.3051 28.6535 24.2496L29.9794 23.9183C29.9794 23.9183 30.0899 23.8632 30.2556 23.8632C30.5319 23.8632 31.2497 24.0288 30.9738 24.3602C30.8633 24.5259 30.3662 24.8573 29.8136 25.2441L29.8138 25.2441Z" fill="#1A15FF"/>
<path d="M30.6976 17.566C30.7527 18.1185 30.5319 20.5486 30.4213 21.6537C30.3108 22.3719 30.1451 23.0346 30.0345 23.6423C29.9239 23.6423 29.7031 23.6974 29.5925 23.6974C29.4268 23.6974 29.04 23.808 28.7641 23.9182C28.8747 23.2554 29.0404 22.5372 29.2061 21.9846C29.7031 20.2168 29.8137 18.2286 29.8137 17.5104C29.8137 16.7922 28.5433 15.7426 28.3222 15.3561C28.1565 15.0798 27.6594 13.5332 27.5489 13.1468C28.7641 13.1468 30.3108 14.307 30.3108 14.307C30.3108 14.307 30.3659 14.4727 30.3659 14.6938C30.3663 14.6383 30.6421 16.9583 30.6976 17.566Z" fill="#FF1515"/>
<path d="M29.7033 25.7412C29.5376 26.7909 29.4825 27.4535 29.4825 27.4535C29.4825 27.4535 28.7092 28.2819 28.2121 26.901V26.8459C28.2121 26.7908 28.2121 26.6802 28.2672 26.5696C28.3223 26.5145 28.4329 26.5145 28.488 26.459C28.9299 26.2382 29.3719 25.962 29.7033 25.7412Z" fill="#FF1515"/>
<path d="M26.4442 22.9241C26.2786 22.9792 26.168 23.0898 26.0023 23.1449C25.8366 23.2555 25.6709 23.3657 25.5603 23.4762C25.5603 23.2 25.5052 22.9237 25.5052 22.6478C25.6158 22.8686 25.9472 22.9792 26.4442 22.9241Z" fill="#1A15FF"/>
<path d="M21.307 14.5278C21.1414 14.3071 20.81 14.1965 20.5337 14.2516L18.7109 14.5829C18.7109 14.5829 20.81 12.9257 22.5224 13.1468C22.5224 13.1468 22.5775 13.2019 22.6881 13.3125C22.9644 13.7545 23.9033 15.4668 24.1796 16.4613C24.4559 17.566 24.5665 19.7203 24.7322 20.549C24.7873 20.9359 25.0084 22.3719 25.119 23.8635C24.8427 24.1398 24.6771 24.3606 24.6771 24.3606C24.6771 24.3606 23.9037 24.4157 23.241 24.3055C22.5782 24.1949 20.5896 23.8084 20.4239 23.8636C20.4239 23.8636 20.6447 23.3665 20.7553 22.5932C22.9096 20.2181 22.1914 16.8486 21.9155 16.0197C21.6384 15.0799 21.307 14.5278 21.307 14.5278Z" fill="#FF1515"/>
<path d="M28.0461 22.7031C28.2118 22.7031 28.433 22.648 28.5987 22.4823C28.5436 22.648 28.5436 22.8137 28.4881 22.9794C28.3775 22.8137 28.2118 22.7586 28.0461 22.7031Z" fill="#1A15FF"/>
<path d="M16.0594 19.3336C16.3908 18.6154 16.5014 18.1734 16.5014 18.1734C16.3357 15.522 19.0976 14.6933 20.81 14.7487L20.9206 14.6936L21.2519 15.3563C21.2519 15.3563 21.9147 16.3504 21.9147 18.781C21.9147 20.2171 21.3621 21.2666 20.865 21.9298V21.5429C20.865 20.2171 20.6994 19.7201 20.6994 19.7201L21.0862 18.726C21.0862 18.726 20.368 19.4442 20.368 19.7201C20.368 19.9963 20.6994 20.8803 20.368 22.979C20.368 22.979 20.2023 23.5316 19.8709 24.0837C19.8709 24.0837 21.307 24.4151 22.688 24.5808C22.6329 24.8015 22.5223 25.4092 22.6329 25.9617C22.7435 26.4588 22.9092 26.9558 22.9643 27.2321C21.4727 27.619 19.7053 28.116 19.0421 28.2817C18.0481 28.3368 17.3299 28.116 16.943 28.0055C16.004 27.6741 16.2248 25.3541 16.2248 24.9122C16.2248 24.4152 15.6171 22.9787 15.6171 22.9787C15.2861 21.985 15.728 19.9967 16.0594 19.3336Z" fill="#FF1515"/>
<path d="M25.1185 27.2327C25.1185 27.2878 25.0634 27.3432 25.0634 27.3983C25.0634 27.3983 24.5108 28.6136 23.793 28.6136C23.2959 28.6136 22.1913 28.3373 21.5281 28.1716C22.7985 27.8403 24.1795 27.4534 24.5108 27.3983C24.732 27.3428 24.8977 27.2878 25.1185 27.2327Z" fill="#FF1515"/>
<path d="M18.4899 40.6556C16.8327 38.7776 17.5509 35.4631 18.1586 34.3034C18.4899 33.5851 19.0976 32.7016 19.5395 31.7072C19.9264 30.7131 20.0366 29.6634 19.6501 28.7245C19.9815 28.6139 20.3683 28.5588 20.7548 28.4482C21.031 28.5588 22.9641 29.2215 23.9035 29.0559C24.9532 28.9453 25.3951 27.8406 25.4502 27.5092C25.4502 27.3986 25.5053 27.2884 25.5053 27.1778C25.7261 27.1227 26.0024 27.0672 26.2786 27.0121C26.7757 26.9015 27.3283 26.9015 27.8253 26.7359C27.7702 27.6749 28.0461 28.0062 28.0461 28.0062C28.0461 28.0062 28.2669 28.1168 28.8745 28.4482C29.4822 28.7796 30.1449 29.8292 29.8135 32.5359C29.8135 32.5359 29.4267 34.7453 27.1067 36.2369C24.7868 37.7285 24.4 39.4959 26.444 41.7607C28.4877 44.0256 26.4991 47.3397 26.0571 47.7265C25.6152 48.1133 24.7313 49.3837 22.8533 49.4388C20.9753 49.4939 19.263 51.096 19.5944 51.9799C19.9257 52.8638 21.0859 53.0846 21.0859 53.0846C21.0859 53.0846 18.1032 53.1397 17.9926 50.8753C17.9375 49.3837 18.2134 48.3896 21.0859 46.6218C24.0139 44.7434 20.1473 42.5891 18.4901 40.6557L18.4899 40.6556Z" fill="#1A15FF"/>
<path d="M66.5611 22.0895C66.4545 21.7443 66.3075 21.4354 66.12 21.1626C65.9368 20.8857 65.7152 20.6491 65.4553 20.4531C65.1996 20.2571 64.9055 20.1101 64.5732 20.0121C64.2408 19.9098 63.8786 19.8587 63.4865 19.8587C62.7834 19.8587 62.157 20.0355 61.6072 20.3892C61.0575 20.7429 60.625 21.2628 60.3097 21.9489C59.9986 22.6307 59.843 23.4616 59.843 24.4418C59.843 25.4304 59.9986 26.2678 60.3097 26.9538C60.6207 27.6399 61.0533 28.1619 61.6072 28.5199C62.1612 28.8736 62.8047 29.0504 63.5376 29.0504C64.2024 29.0504 64.7777 28.9226 65.2635 28.6669C65.7536 28.4112 66.1307 28.049 66.3949 27.5803C66.6591 27.1072 66.7912 26.5533 66.7912 25.9183L67.3281 26.0014H63.7741V24.1477H69.0859V25.7202C69.0859 26.8409 68.8473 27.8104 68.37 28.6286C67.8928 29.4467 67.2365 30.0774 66.4013 30.5206C65.5661 30.9595 64.6072 31.179 63.5249 31.179C62.3189 31.179 61.2599 30.9084 60.348 30.3672C59.4403 29.8217 58.7308 29.0483 58.2195 28.0469C57.7124 27.0412 57.4588 25.848 57.4588 24.4673C57.4588 23.4105 57.608 22.4666 57.9062 21.6357C58.2088 20.8047 58.6307 20.0994 59.1719 19.5199C59.7131 18.9361 60.348 18.4929 61.0767 18.1903C61.8054 17.8835 62.598 17.7301 63.4545 17.7301C64.179 17.7301 64.8544 17.8366 65.4808 18.0497C66.1072 18.2585 66.6634 18.5568 67.1491 18.9446C67.6392 19.3324 68.0419 19.7926 68.3572 20.3253C68.6726 20.858 68.8793 21.446 68.9773 22.0895H66.5611ZM75.6234 31.1918C74.639 31.1918 73.7889 30.9872 73.073 30.5781C72.3613 30.1648 71.8137 29.581 71.4302 28.8267C71.0467 28.0682 70.8549 27.1754 70.8549 26.1484C70.8549 25.1385 71.0467 24.2521 71.4302 23.4893C71.818 22.7223 72.3592 22.1257 73.0538 21.6996C73.7484 21.2692 74.5645 21.054 75.502 21.054C76.1071 21.054 76.6781 21.152 77.215 21.348C77.7562 21.5398 78.2335 21.8381 78.6468 22.2429C79.0645 22.6477 79.3926 23.1634 79.6312 23.7898C79.8699 24.4119 79.9892 25.1534 79.9892 26.0142V26.7237H71.9416V25.1641H77.7711C77.7669 24.7209 77.671 24.3267 77.4835 23.9815C77.296 23.6321 77.0339 23.3572 76.6973 23.157C76.3649 22.9567 75.9771 22.8565 75.5339 22.8565C75.0609 22.8565 74.6454 22.9716 74.2875 23.2017C73.9295 23.4276 73.6504 23.7259 73.4501 24.0966C73.2541 24.4631 73.1539 24.8658 73.1497 25.3047V26.6662C73.1497 27.2372 73.2541 27.7273 73.4629 28.1364C73.6717 28.5412 73.9636 28.8523 74.3386 29.0696C74.7136 29.2827 75.1525 29.3892 75.6554 29.3892C75.992 29.3892 76.2967 29.3423 76.5694 29.2486C76.8422 29.1506 77.0787 29.0078 77.2789 28.8203C77.4792 28.6328 77.6305 28.4006 77.7328 28.1236L79.8933 28.3665C79.7569 28.9375 79.497 29.4361 79.1135 29.8622C78.7342 30.2841 78.2484 30.6122 77.6561 30.8466C77.0637 31.0767 76.3862 31.1918 75.6234 31.1918ZM84.2607 25.2472V31H81.9467V21.1818H84.1584V22.8501H84.2734C84.4993 22.3004 84.8594 21.8636 85.3537 21.5398C85.8523 21.2159 86.468 21.054 87.201 21.054C87.8786 21.054 88.4688 21.1989 88.9716 21.4886C89.4787 21.7784 89.8707 22.1982 90.1477 22.7479C90.429 23.2976 90.5675 23.9645 90.5632 24.7486V31H88.2493V25.1065C88.2493 24.4503 88.0788 23.9368 87.7379 23.5661C87.4013 23.1953 86.9347 23.0099 86.3381 23.0099C85.9332 23.0099 85.5732 23.0994 85.2578 23.2784C84.9467 23.4531 84.7017 23.7067 84.5227 24.0391C84.348 24.3714 84.2607 24.7741 84.2607 25.2472ZM92.9155 31V21.1818H95.2294V31H92.9155ZM94.0788 19.7884C93.7124 19.7884 93.397 19.6669 93.1328 19.424C92.8686 19.1768 92.7365 18.8807 92.7365 18.5355C92.7365 18.1861 92.8686 17.8899 93.1328 17.647C93.397 17.3999 93.7124 17.2763 94.0788 17.2763C94.4496 17.2763 94.7649 17.3999 95.0249 17.647C95.2891 17.8899 95.4212 18.1861 95.4212 18.5355C95.4212 18.8807 95.2891 19.1768 95.0249 19.424C94.7649 19.6669 94.4496 19.7884 94.0788 19.7884ZM101.955 31.1918C100.971 31.1918 100.121 30.9872 99.405 30.5781C98.6934 30.1648 98.1458 29.581 97.7623 28.8267C97.3787 28.0682 97.187 27.1754 97.187 26.1484C97.187 25.1385 97.3787 24.2521 97.7623 23.4893C98.15 22.7223 98.6912 22.1257 99.3858 21.6996C100.08 21.2692 100.896 21.054 101.834 21.054C102.439 21.054 103.01 21.152 103.547 21.348C104.088 21.5398 104.566 21.8381 104.979 22.2429C105.396 22.6477 105.725 23.1634 105.963 23.7898C106.202 24.4119 106.321 25.1534 106.321 26.0142V26.7237H98.2736V25.1641H104.103C104.099 24.7209 104.003 24.3267 103.816 23.9815C103.628 23.6321 103.366 23.3572 103.029 23.157C102.697 22.9567 102.309 22.8565 101.866 22.8565C101.393 22.8565 100.977 22.9716 100.619 23.2017C100.262 23.4276 99.9824 23.7259 99.7821 24.0966C99.5861 24.4631 99.486 24.8658 99.4817 25.3047V26.6662C99.4817 27.2372 99.5861 27.7273 99.7949 28.1364C100.004 28.5412 100.296 28.8523 100.671 29.0696C101.046 29.2827 101.485 29.3892 101.987 29.3892C102.324 29.3892 102.629 29.3423 102.901 29.2486C103.174 29.1506 103.411 29.0078 103.611 28.8203C103.811 28.6328 103.963 28.4006 104.065 28.1236L106.225 28.3665C106.089 28.9375 105.829 29.4361 105.445 29.8622C105.066 30.2841 104.58 30.6122 103.988 30.8466C103.396 31.0767 102.718 31.1918 101.955 31.1918ZM112.625 31.1918C111.641 31.1918 110.791 30.9872 110.075 30.5781C109.363 30.1648 108.816 29.581 108.432 28.8267C108.049 28.0682 107.857 27.1754 107.857 26.1484C107.857 25.1385 108.049 24.2521 108.432 23.4893C108.82 22.7223 109.361 22.1257 110.056 21.6996C110.75 21.2692 111.566 21.054 112.504 21.054C113.109 21.054 113.68 21.152 114.217 21.348C114.758 21.5398 115.235 21.8381 115.649 22.2429C116.066 22.6477 116.395 23.1634 116.633 23.7898C116.872 24.4119 116.991 25.1534 116.991 26.0142V26.7237H108.944V25.1641H114.773C114.769 24.7209 114.673 24.3267 114.485 23.9815C114.298 23.6321 114.036 23.3572 113.699 23.157C113.367 22.9567 112.979 22.8565 112.536 22.8565C112.063 22.8565 111.647 22.9716 111.289 23.2017C110.931 23.4276 110.652 23.7259 110.452 24.0966C110.256 24.4631 110.156 24.8658 110.152 25.3047V26.6662C110.152 27.2372 110.256 27.7273 110.465 28.1364C110.674 28.5412 110.966 28.8523 111.341 29.0696C111.716 29.2827 112.154 29.3892 112.657 29.3892C112.994 29.3892 113.299 29.3423 113.571 29.2486C113.844 29.1506 114.081 29.0078 114.281 28.8203C114.481 28.6328 114.632 28.4006 114.735 28.1236L116.895 28.3665C116.759 28.9375 116.499 29.4361 116.115 29.8622C115.736 30.2841 115.25 30.6122 114.658 30.8466C114.066 31.0767 113.388 31.1918 112.625 31.1918Z" fill="#1A15FF"/>
<path d="M130.63 21.5078C130.57 20.9496 130.319 20.5149 129.876 20.2038C129.437 19.8928 128.866 19.7372 128.163 19.7372C127.669 19.7372 127.244 19.8118 126.891 19.9609C126.537 20.1101 126.267 20.3125 126.079 20.5682C125.892 20.8239 125.796 21.1158 125.791 21.4439C125.791 21.7166 125.853 21.9531 125.977 22.1534C126.105 22.3537 126.277 22.5241 126.494 22.6648C126.712 22.8011 126.953 22.9162 127.217 23.0099C127.481 23.1037 127.747 23.1825 128.016 23.2464L129.243 23.5533C129.737 23.6683 130.213 23.8239 130.669 24.0199C131.129 24.2159 131.54 24.4631 131.902 24.7614C132.269 25.0597 132.558 25.4197 132.771 25.8416C132.985 26.2635 133.091 26.7578 133.091 27.3246C133.091 28.0916 132.895 28.767 132.503 29.3509C132.111 29.9304 131.544 30.3842 130.803 30.7124C130.066 31.0362 129.173 31.1982 128.124 31.1982C127.106 31.1982 126.222 31.0405 125.472 30.7251C124.726 30.4098 124.142 29.9496 123.72 29.3445C123.303 28.7393 123.077 28.0021 123.043 27.1328H125.376C125.41 27.5888 125.551 27.968 125.798 28.2706C126.045 28.5732 126.367 28.799 126.763 28.9482C127.164 29.0973 127.611 29.1719 128.105 29.1719C128.621 29.1719 129.073 29.0952 129.46 28.9418C129.852 28.7841 130.159 28.5668 130.381 28.2898C130.602 28.0085 130.715 27.6804 130.72 27.3054C130.715 26.9645 130.615 26.6832 130.419 26.4616C130.223 26.2358 129.948 26.0483 129.595 25.8991C129.245 25.7457 128.836 25.6094 128.367 25.4901L126.878 25.1065C125.8 24.8295 124.948 24.4098 124.321 23.8473C123.699 23.2805 123.388 22.5284 123.388 21.5909C123.388 20.8196 123.597 20.1442 124.014 19.5646C124.436 18.9851 125.009 18.5355 125.734 18.2159C126.458 17.892 127.279 17.7301 128.195 17.7301C129.124 17.7301 129.938 17.892 130.637 18.2159C131.34 18.5355 131.892 18.9808 132.292 19.5518C132.693 20.1186 132.899 20.7706 132.912 21.5078H130.63ZM139.386 31.1918C138.406 31.1918 137.564 30.9766 136.861 30.5462C136.162 30.1158 135.623 29.5213 135.244 28.7628C134.869 28 134.681 27.1222 134.681 26.1293C134.681 25.1321 134.873 24.2521 135.256 23.4893C135.64 22.7223 136.181 22.1257 136.88 21.6996C137.583 21.2692 138.414 21.054 139.373 21.054C140.17 21.054 140.875 21.201 141.489 21.495C142.107 21.7848 142.599 22.196 142.965 22.7287C143.332 23.2571 143.54 23.875 143.592 24.5824H141.38C141.29 24.1094 141.077 23.7152 140.741 23.3999C140.408 23.0803 139.963 22.9205 139.405 22.9205C138.932 22.9205 138.516 23.0483 138.158 23.304C137.8 23.5554 137.521 23.9176 137.321 24.3906C137.125 24.8636 137.027 25.4304 137.027 26.0909C137.027 26.7599 137.125 27.3352 137.321 27.8168C137.517 28.294 137.792 28.6626 138.146 28.9226C138.504 29.1783 138.923 29.3061 139.405 29.3061C139.746 29.3061 140.05 29.2422 140.319 29.1143C140.592 28.9822 140.82 28.7926 141.003 28.5455C141.186 28.2983 141.312 27.9979 141.38 27.6442H143.592C143.536 28.3388 143.332 28.9545 142.978 29.4915C142.624 30.0241 142.143 30.4418 141.533 30.7443C140.924 31.0426 140.208 31.1918 139.386 31.1918ZM145.492 31V21.1818H147.735V22.8182H147.838C148.017 22.2514 148.323 21.8146 148.758 21.5078C149.197 21.1967 149.698 21.0412 150.26 21.0412C150.388 21.0412 150.531 21.0476 150.688 21.0604C150.85 21.0689 150.985 21.0838 151.091 21.1051V23.2337C150.993 23.1996 150.838 23.1697 150.624 23.1442C150.416 23.1143 150.213 23.0994 150.017 23.0994C149.595 23.0994 149.216 23.1911 148.879 23.3743C148.547 23.5533 148.285 23.8026 148.093 24.1222C147.901 24.4418 147.806 24.8104 147.806 25.228V31H145.492ZM152.628 31V21.1818H154.942V31H152.628ZM153.792 19.7884C153.425 19.7884 153.11 19.6669 152.846 19.424C152.581 19.1768 152.449 18.8807 152.449 18.5355C152.449 18.1861 152.581 17.8899 152.846 17.647C153.11 17.3999 153.425 17.2763 153.792 17.2763C154.162 17.2763 154.478 17.3999 154.738 17.647C155.002 17.8899 155.134 18.1861 155.134 18.5355C155.134 18.8807 155.002 19.1768 154.738 19.424C154.478 19.6669 154.162 19.7884 153.792 19.7884ZM157.322 34.6818V21.1818H159.597V22.8054H159.732C159.851 22.5668 160.019 22.3132 160.237 22.0447C160.454 21.772 160.748 21.5398 161.119 21.348C161.489 21.152 161.962 21.054 162.538 21.054C163.296 21.054 163.98 21.2479 164.589 21.6357C165.203 22.0192 165.689 22.5881 166.047 23.3423C166.409 24.0923 166.59 25.0128 166.59 26.1037C166.59 27.1818 166.413 28.098 166.06 28.8523C165.706 29.6065 165.224 30.1818 164.615 30.5781C164.006 30.9744 163.315 31.1726 162.544 31.1726C161.982 31.1726 161.515 31.0788 161.144 30.8913C160.773 30.7038 160.475 30.478 160.249 30.2138C160.028 29.9453 159.855 29.6918 159.732 29.4531H159.636V34.6818H157.322ZM159.591 26.0909C159.591 26.7259 159.68 27.282 159.859 27.7592C160.043 28.2365 160.305 28.6094 160.646 28.8778C160.991 29.142 161.408 29.2741 161.898 29.2741C162.41 29.2741 162.838 29.1378 163.183 28.8651C163.528 28.5881 163.788 28.2109 163.963 27.7337C164.142 27.2521 164.232 26.7045 164.232 26.0909C164.232 25.4815 164.144 24.9403 163.969 24.4673C163.795 23.9943 163.535 23.6236 163.19 23.3551C162.844 23.0866 162.414 22.9524 161.898 22.9524C161.404 22.9524 160.984 23.0824 160.639 23.3423C160.294 23.6023 160.032 23.9666 159.853 24.4354C159.678 24.9041 159.591 25.456 159.591 26.0909ZM173.474 21.1818V22.9716H167.83V21.1818H173.474ZM169.224 18.8295H171.538V28.0469C171.538 28.358 171.585 28.5966 171.678 28.7628C171.776 28.9247 171.904 29.0355 172.062 29.0952C172.219 29.1548 172.394 29.1847 172.586 29.1847C172.731 29.1847 172.863 29.174 172.982 29.1527C173.106 29.1314 173.2 29.1122 173.263 29.0952L173.653 30.9041C173.53 30.9467 173.353 30.9936 173.123 31.0447C172.897 31.0959 172.62 31.1257 172.292 31.1342C171.712 31.1513 171.19 31.0639 170.726 30.8722C170.261 30.6761 169.893 30.3736 169.62 29.9645C169.352 29.5554 169.219 29.044 169.224 28.4304V18.8295Z" fill="#FF1515"/>
<path d="M119.01 47H116.545V39.7273H119.06C119.782 39.7273 120.402 39.8729 120.92 40.1641C121.441 40.4529 121.841 40.8684 122.121 41.4105C122.4 41.9527 122.54 42.6013 122.54 43.3565C122.54 44.1141 122.399 44.7652 122.117 45.3097C121.838 45.8542 121.434 46.272 120.906 46.5632C120.381 46.8544 119.749 47 119.01 47ZM117.863 45.8601H118.946C119.453 45.8601 119.875 45.7678 120.214 45.5831C120.552 45.3961 120.807 45.1179 120.977 44.7486C121.148 44.3769 121.233 43.9129 121.233 43.3565C121.233 42.8002 121.148 42.3385 120.977 41.9716C120.807 41.6023 120.555 41.3265 120.221 41.1442C119.889 40.9595 119.478 40.8672 118.985 40.8672H117.863V45.8601ZM126.15 47.1065C125.603 47.1065 125.13 46.9929 124.733 46.7656C124.337 46.536 124.033 46.2116 123.82 45.7926C123.607 45.3712 123.5 44.8752 123.5 44.3047C123.5 43.7436 123.607 43.2512 123.82 42.8274C124.035 42.4013 124.336 42.0698 124.722 41.8331C125.108 41.594 125.561 41.4744 126.082 41.4744C126.418 41.4744 126.735 41.5289 127.034 41.6378C127.334 41.7443 127.6 41.91 127.829 42.1349C128.061 42.3598 128.243 42.6463 128.376 42.9943C128.509 43.34 128.575 43.7519 128.575 44.2301V44.6243H124.104V43.7578H127.343C127.34 43.5116 127.287 43.2926 127.183 43.1009C127.079 42.9067 126.933 42.754 126.746 42.6428C126.561 42.5315 126.346 42.4759 126.1 42.4759C125.837 42.4759 125.606 42.5398 125.407 42.6676C125.208 42.7931 125.053 42.9588 124.942 43.1648C124.833 43.3684 124.778 43.5921 124.775 43.8359V44.5923C124.775 44.9096 124.833 45.1818 124.949 45.4091C125.065 45.634 125.227 45.8068 125.436 45.9276C125.644 46.0459 125.888 46.1051 126.167 46.1051C126.354 46.1051 126.524 46.0791 126.675 46.027C126.827 45.9725 126.958 45.8932 127.069 45.7891C127.181 45.6849 127.265 45.5559 127.321 45.402L128.522 45.5369C128.446 45.8542 128.301 46.1312 128.088 46.3679C127.878 46.6023 127.608 46.7846 127.279 46.9148C126.95 47.0426 126.573 47.1065 126.15 47.1065ZM134.378 41.5455L132.436 47H131.015L129.073 41.5455H130.444L131.697 45.5973H131.754L133.011 41.5455H134.378ZM137.789 47H135.325V39.7273H137.839C138.561 39.7273 139.181 39.8729 139.7 40.1641C140.221 40.4529 140.621 40.8684 140.9 41.4105C141.179 41.9527 141.319 42.6013 141.319 43.3565C141.319 44.1141 141.178 44.7652 140.896 45.3097C140.617 45.8542 140.213 46.272 139.686 46.5632C139.16 46.8544 138.528 47 137.789 47ZM136.642 45.8601H137.725C138.232 45.8601 138.655 45.7678 138.993 45.5831C139.332 45.3961 139.586 45.1179 139.757 44.7486C139.927 44.3769 140.012 43.9129 140.012 43.3565C140.012 42.8002 139.927 42.3385 139.757 41.9716C139.586 41.6023 139.334 41.3265 139 41.1442C138.669 40.9595 138.257 40.8672 137.764 40.8672H136.642V45.8601ZM143.313 49.0455C143.138 49.0455 142.976 49.0313 142.827 49.0028C142.68 48.9768 142.563 48.946 142.475 48.9105L142.773 47.9091C142.96 47.9635 143.127 47.9896 143.274 47.9872C143.421 47.9848 143.55 47.9387 143.661 47.8487C143.775 47.7611 143.871 47.6143 143.949 47.4084L144.059 47.1136L142.081 41.5455H143.444L144.702 45.6648H144.758L146.019 41.5455H147.386L145.202 47.6605C145.1 47.9493 144.965 48.1967 144.797 48.4027C144.629 48.611 144.423 48.7696 144.18 48.8786C143.938 48.9898 143.649 49.0455 143.313 49.0455ZM149.561 43.804V47H148.276V41.5455H149.504V42.4723H149.568C149.694 42.1669 149.894 41.9242 150.169 41.7443C150.445 41.5644 150.788 41.4744 151.195 41.4744C151.571 41.4744 151.899 41.5549 152.178 41.7159C152.46 41.8769 152.678 42.1101 152.832 42.4155C152.988 42.7209 153.065 43.0914 153.063 43.527V47H151.777V43.7259C151.777 43.3613 151.682 43.076 151.493 42.87C151.306 42.6641 151.047 42.5611 150.715 42.5611C150.49 42.5611 150.29 42.6108 150.115 42.7102C149.942 42.8073 149.806 42.9482 149.707 43.1328C149.61 43.3175 149.561 43.5412 149.561 43.804ZM155.939 47.1101C155.593 47.1101 155.282 47.0485 155.005 46.9254C154.731 46.8 154.513 46.6153 154.352 46.3714C154.193 46.1276 154.114 45.8269 154.114 45.4695C154.114 45.1617 154.171 44.9072 154.284 44.706C154.398 44.5047 154.553 44.3438 154.749 44.223C154.946 44.1023 155.167 44.0111 155.414 43.9496C155.662 43.8857 155.919 43.8395 156.184 43.8111C156.504 43.7779 156.763 43.7483 156.962 43.7223C157.161 43.6939 157.305 43.6513 157.395 43.5945C157.487 43.5353 157.534 43.4441 157.534 43.321V43.2997C157.534 43.0322 157.454 42.825 157.296 42.6783C157.137 42.5315 156.909 42.4581 156.61 42.4581C156.295 42.4581 156.046 42.5268 155.861 42.6641C155.679 42.8014 155.556 42.9635 155.492 43.1506L154.291 42.9801C154.386 42.6487 154.542 42.3717 154.76 42.1491C154.978 41.9242 155.244 41.7562 155.559 41.6449C155.874 41.5312 156.222 41.4744 156.603 41.4744C156.866 41.4744 157.128 41.5052 157.388 41.5668C157.648 41.6283 157.886 41.7301 158.102 41.8722C158.317 42.0118 158.49 42.2024 158.62 42.4439C158.753 42.6854 158.819 42.9872 158.819 43.3494V47H157.583V46.2507H157.541C157.463 46.4022 157.352 46.5443 157.21 46.6768C157.071 46.8071 156.894 46.9124 156.681 46.9929C156.471 47.071 156.223 47.1101 155.939 47.1101ZM156.273 46.1655C156.531 46.1655 156.755 46.1146 156.944 46.0128C157.133 45.9086 157.279 45.7713 157.381 45.6009C157.485 45.4304 157.537 45.2446 157.537 45.0433V44.4006C157.497 44.4337 157.428 44.4645 157.331 44.4929C157.236 44.5213 157.13 44.5462 157.012 44.5675C156.893 44.5888 156.776 44.6077 156.66 44.6243C156.544 44.6409 156.443 44.6551 156.358 44.6669C156.166 44.6929 155.995 44.7356 155.843 44.7947C155.692 44.8539 155.572 44.9368 155.485 45.0433C155.397 45.1475 155.353 45.2824 155.353 45.4482C155.353 45.6849 155.44 45.8636 155.612 45.9844C155.785 46.1051 156.005 46.1655 156.273 46.1655ZM164.423 42.9872L163.251 43.1151C163.218 42.9967 163.16 42.8854 163.077 42.7812C162.996 42.6771 162.887 42.593 162.75 42.5291C162.613 42.4652 162.445 42.4332 162.246 42.4332C161.978 42.4332 161.753 42.4912 161.571 42.6072C161.391 42.7232 161.302 42.8736 161.305 43.0582C161.302 43.2169 161.36 43.3459 161.479 43.4453C161.6 43.5447 161.798 43.6264 162.075 43.6903L163.006 43.8892C163.522 44.0005 163.905 44.1768 164.156 44.4183C164.41 44.6598 164.538 44.9759 164.54 45.3665C164.538 45.7098 164.437 46.0128 164.238 46.2756C164.042 46.536 163.768 46.7396 163.418 46.8864C163.067 47.0331 162.665 47.1065 162.21 47.1065C161.543 47.1065 161.005 46.9669 160.598 46.6875C160.191 46.4058 159.948 46.014 159.87 45.5121L161.124 45.3913C161.181 45.6375 161.301 45.8234 161.486 45.9489C161.671 46.0743 161.911 46.1371 162.207 46.1371C162.512 46.1371 162.757 46.0743 162.942 45.9489C163.129 45.8234 163.222 45.6683 163.222 45.4837C163.222 45.3274 163.162 45.1984 163.041 45.0966C162.923 44.9948 162.738 44.9167 162.487 44.8622L161.557 44.6669C161.034 44.558 160.647 44.3745 160.396 44.1165C160.145 43.8561 160.021 43.527 160.023 43.1293C160.021 42.7931 160.112 42.5019 160.296 42.2557C160.483 42.0071 160.743 41.8153 161.074 41.6804C161.408 41.5431 161.793 41.4744 162.228 41.4744C162.867 41.4744 163.37 41.6106 163.737 41.8828C164.107 42.1551 164.335 42.5232 164.423 42.9872ZM168.324 41.5455V42.5398H165.188V41.5455H168.324ZM165.962 40.2386H167.248V45.3594C167.248 45.5322 167.274 45.6648 167.326 45.7571C167.38 45.8471 167.451 45.9086 167.539 45.9418C167.626 45.9749 167.724 45.9915 167.83 45.9915C167.911 45.9915 167.984 45.9856 168.05 45.9737C168.119 45.9619 168.171 45.9512 168.206 45.9418L168.423 46.9467C168.354 46.9704 168.256 46.9964 168.128 47.0249C168.003 47.0533 167.849 47.0698 167.667 47.0746C167.345 47.084 167.055 47.0355 166.797 46.929C166.539 46.8201 166.334 46.652 166.182 46.4247C166.033 46.1974 165.96 45.9134 165.962 45.5724V40.2386ZM170.198 49.0455C170.023 49.0455 169.86 49.0313 169.711 49.0028C169.565 48.9768 169.447 48.946 169.36 48.9105L169.658 47.9091C169.845 47.9635 170.012 47.9896 170.159 47.9872C170.306 47.9848 170.435 47.9387 170.546 47.8487C170.659 47.7611 170.755 47.6143 170.833 47.4084L170.944 47.1136L168.966 41.5455H170.329L171.586 45.6648H171.643L172.904 41.5455H174.271L172.087 47.6605C171.985 47.9493 171.85 48.1967 171.682 48.4027C171.514 48.611 171.308 48.7696 171.064 48.8786C170.823 48.9898 170.534 49.0455 170.198 49.0455Z" fill="#0E0C63"/>
<line x1="56.5" y1="43.5" x2="110.5" y2="43.5" stroke="#EEEDFF"/>
<defs>
<linearGradient id="paint0_linear_1_280" x1="28.4691" y1="21.241" x2="54.3037" y2="47.0757" gradientUnits="userSpaceOnUse">
<stop stop-color="#E4E3FF"/>
<stop offset="0.709794" stop-color="white"/>
</linearGradient>
</defs>
</svg>
